<?xml version="1.0" standalone="no"?>
<!DOCTYPE svg PUBLIC "-//W3C//DTD SVG 1.1//EN" "http://www.w3.org/Graphics/SVG/1.1/DTD/svg11.dtd" >
<svg xmlns="http://www.w3.org/2000/svg">
<metadata></metadata>
<defs>
<font id="dinregular" horiz-adv-x="1069" >
<font-face units-per-em="2048" ascent="1638" descent="-410" />
<missing-glyph horiz-adv-x="509" />
<glyph horiz-adv-x="2048" />
<glyph horiz-adv-x="2048" />
<glyph unicode="&#xd;" horiz-adv-x="509" />
<glyph unicode=" "  horiz-adv-x="509" />
<glyph unicode="&#x09;" horiz-adv-x="509" />
<glyph unicode="&#xa0;" horiz-adv-x="509" />
<glyph unicode="!" horiz-adv-x="647" d="M266 0h176v172h-176v-172zM270 1458l21 -1048h127l22 1048h-170z" />
<glyph unicode="&#x22;" horiz-adv-x="866" d="M180 1110h162v348h-162v-348zM524 1110h162v348h-162v-348z" />
<glyph unicode="#" horiz-adv-x="1337" d="M158 465h182l-74 -465h152l71 465h328l-74 -465h152l74 465h202v131h-182l47 289h197v135h-178l69 440h-149l-70 -440h-325l71 440h-153l-70 -440h-207v-135h189l-48 -289h-204v-131zM512 596l47 289h326l-47 -289h-326z" />
<glyph unicode="$" horiz-adv-x="1220" d="M86 180q96 -96 201 -141t250 -51v-221h122v225q100 6 184 38q81 31 141 85q58 52 90 125t32 161q0 93 -33 165q-34 75 -92 124q-23 21 -48 36q-30 18 -56 28q-29 11 -70 21q-57 13 -90 18l-64 10v530q94 -6 161 -38q63 -30 126 -85l100 101q-83 75 -174 113 q-90 38 -207 44v183h-122v-183q-194 -17 -303 -126t-109 -283q0 -172 113 -273q40 -35 112 -69q70 -34 154 -41l41 -4v-543q-107 5 -188 40q-82 36 -164 118zM279 1065q0 115 68 186t198 82v-516q-47 7 -106 27q-50 17 -95 53q-65 56 -65 168zM653 129v526q94 -15 120 -20 q56 -11 106 -55q34 -30 53 -78q18 -47 18 -105q0 -119 -79 -188q-80 -70 -218 -80z" />
<glyph unicode="%" horiz-adv-x="1705" d="M133 981q0 -125 78 -200q77 -74 199 -74q119 0 197 74q79 75 79 200v215q0 127 -79 202t-197 75q-121 0 -199 -75t-78 -202v-215zM250 985v207q0 85 37 131q38 47 123 47q84 0 121 -48q38 -49 38 -130v-207q0 -82 -38 -129t-121 -47q-85 0 -122 46q-38 47 -38 130zM451 0 h122l684 1458h-122zM1022 262q0 -127 78 -202q77 -74 198 -74q120 0 198 74q79 75 79 202v215q0 127 -79 202q-80 75 -198 75q-120 0 -198 -75t-78 -202v-215zM1139 266v207q0 85 37 131q38 47 122 47t122 -48q38 -49 38 -130v-207q0 -81 -38 -130q-38 -48 -122 -48t-122 47 q-37 46 -37 131z" />
<glyph unicode="&#x26;" horiz-adv-x="1513" d="M158 412q0 -97 31 -174t93 -134q61 -57 145 -86q85 -30 191 -30q91 0 158 19q74 21 123 46q53 27 90 57q45 36 60 50l131 -160h194l-223 268q72 85 102 197q32 117 33 250h-147q0 -57 -5 -109q-4 -36 -15 -86q-9 -38 -24 -73q-12 -28 -38 -66l-373 448l43 31l45 30 q5 3 10 6.5t8 5.5l3 1q67 45 115 110q46 62 46 150q0 67 -23 122q-24 57 -67 97q-45 42 -101 65t-126 23q-71 0 -129 -23t-103 -65q-41 -38 -66 -96q-24 -56 -24 -121q0 -49 15 -93q17 -48 38 -83q25 -41 51 -74l54 -67l-117 -83q-58 -43 -101 -93q-44 -51 -71 -115 q-26 -61 -26 -145zM309 416q0 59 22 109q21 47 56 87q34 38 80 72l92 66l402 -484q-93 -83 -179 -112q-85 -29 -166 -29q-69 0 -123 20q-58 21 -98 60t-63 92q-23 54 -23 119zM469 1167q0 75 46 122q47 48 122 48q73 0 123 -50q49 -49 49 -124q0 -64 -40 -105 q-43 -44 -91 -77q-3 -3 -14 -10l-32 -22l-32 -21q-68 84 -101 138q-30 49 -30 101z" />
<glyph unicode="'" horiz-adv-x="522" d="M180 1110h162v348h-162v-348z" />
<glyph unicode="(" horiz-adv-x="610" d="M188 195q0 -51 8 -107t35 -104q28 -50 64 -89l84 -88l100 101l-62 63q-26 27 -48 70q-33 66 -33 166v1044q0 100 33 166q22 43 48 70l62 63l-100 101l-84 -87q-36 -39 -64 -89q-27 -48 -35 -105q-8 -56 -8 -106v-1069z" />
<glyph unicode=")" horiz-adv-x="610" d="M127 -88l104 -105l84 88q36 39 64 89q29 52 35 104q6 53 6 107v1069q0 54 -6 106q-6 53 -35 105q-28 50 -64 89l-84 87l-104 -105l63 -63q28 -28 50 -70q16 -28 22 -72q6 -41 6 -90v-1044q0 -49 -6 -90q-6 -44 -22 -72q-22 -42 -50 -70z" />
<glyph unicode="*" horiz-adv-x="970" d="M137 967l60 -101l237 146l-8 -281h119l-8 281l239 -146l58 101l-246 133l246 135l-58 98l-239 -145l8 280h-119l8 -280l-237 145l-60 -98l246 -135z" />
<glyph unicode="+" d="M106 479h361v-360h137v360h359v137h-359v357h-137v-357h-361v-137z" />
<glyph unicode="," horiz-adv-x="540" d="M180 180v-475l180 162v313h-180z" />
<glyph unicode="-" horiz-adv-x="872" d="M156 483h561v138h-561v-138z" />
<glyph unicode="." horiz-adv-x="552" d="M180 0h193v193h-193v-193z" />
<glyph unicode="/" horiz-adv-x="727" d="M0 -152h145l584 1762h-145z" />
<glyph unicode="0" d="M135 389q0 -87 31 -165q29 -72 84 -127q52 -52 126 -81q71 -28 159 -28q87 0 158 28q74 29 126 81q55 55 84 127q31 78 31 165v680q0 87 -31 165q-29 72 -84 127q-52 52 -126 81q-71 28 -158 28q-88 0 -159 -28q-74 -29 -126 -81q-55 -55 -84 -127q-31 -78 -31 -165v-680 zM283 397v664q0 121 64 200q63 78 188 78q124 0 187 -78q64 -79 64 -200v-664q0 -120 -64 -199t-187 -79q-124 0 -188 79t-64 199z" />
<glyph unicode="1" d="M256 1055l272 239v-1294h148v1458h-148l-272 -235v-168z" />
<glyph unicode="2" d="M139 0h805v131h-627l510 651q58 76 88 143q29 66 29 152q0 90 -29 163q-29 74 -81 124q-54 52 -127 79t-164 27q-95 0 -166 -29q-74 -30 -126 -82t-81 -125t-29 -159h148q0 73 20 120q21 50 56 83q33 32 80 47q43 14 98 14q122 0 187 -71q67 -73 67 -191q0 -59 -21 -110 q-23 -56 -61 -105l-576 -731v-131z" />
<glyph unicode="3" d="M86 371q5 -100 40 -171q37 -74 93 -121q58 -49 133 -71t162 -22q90 0 167 26q80 27 136 79t91 129q34 75 34 177q0 273 -223 357q196 88 196 323q0 91 -29 162q-31 75 -82 125q-54 52 -127 80q-76 29 -163 29q-83 0 -156 -26q-71 -25 -126 -74q-52 -46 -88 -118 q-34 -68 -40 -157h148q10 112 78 178q66 65 184 65q107 0 180 -67q74 -68 74 -199q0 -124 -62 -193q-63 -71 -198 -71h-31v-129h31q149 0 218 -75t69 -208q0 -135 -81 -209q-80 -73 -200 -73q-56 0 -101 14q-48 15 -87 45q-40 31 -64 79q-25 49 -29 116h-147z" />
<glyph unicode="4" d="M82 231h582v-231h145v231h178v134h-178v413h-145v-413h-424l526 1093h-158l-526 -1093v-134z" />
<glyph unicode="5" d="M143 344q6 -75 31 -141q23 -61 72 -113q48 -48 122 -76t171 -28q100 0 169 28t121 80q79 79 98 177q19 96 19 210q0 57 -4 104q-5 55 -16 103q-11 47 -37 97q-23 44 -64 87q-45 45 -106 68q-66 25 -146 25q-86 0 -152 -27t-110 -74v463h604v131h-737v-766h133 q23 66 84 105t158 39q78 0 128 -31q48 -30 74 -80q26 -51 35 -113q9 -63 9 -131q0 -26 -2 -80q-1 -33 -10 -79q-8 -43 -23 -74q-17 -36 -45 -64q-67 -67 -180 -67q-117 0 -175 58t-73 169h-148z" />
<glyph unicode="6" d="M133 408q0 -93 29 -172t81 -134t128 -85q74 -29 168 -29t167 32t127 91q51 55 80 137q29 81 29 172q0 87 -28 166q-27 76 -76 131q-50 56 -119 86q-71 31 -156 31q-83 0 -153 -31l325 655h-151l-359 -723q-47 -91 -69 -171q-23 -81 -23 -156zM281 414q0 136 69 215 q69 80 187 80q63 0 111 -24q50 -25 81 -63q32 -39 49 -94q17 -54 17 -114q0 -135 -71 -215t-187 -80q-118 0 -187 80q-69 79 -69 215z" />
<glyph unicode="7" d="M156 1098h145v229h508l-506 -1327h156l506 1327v131h-809v-360z" />
<glyph unicode="8" d="M104 401q0 -91 33 -168q33 -76 91 -131t138 -85q77 -29 169 -29q91 0 168 29q80 30 138 85t91 131q33 77 33 168q0 129 -63 215q-66 89 -154 140q86 50 137 129q51 80 51 194q0 86 -30 158q-30 71 -84 124q-54 52 -128 81q-72 28 -159 28q-88 0 -160 -28 q-74 -29 -128 -81q-54 -53 -84 -124q-30 -72 -30 -158q0 -115 52 -194t139 -129q-92 -53 -156 -140t-64 -215zM252 403q0 62 21 113q20 48 60 90q39 41 90 61q53 21 112 21t111 -21q51 -20 90 -61q40 -42 60 -90q21 -51 21 -113q0 -61 -21 -112q-20 -48 -60 -90 q-39 -41 -90 -61q-52 -21 -111 -21t-112 21q-51 20 -90 61q-40 42 -60 90q-21 51 -21 112zM281 1077q0 116 70 189t184 73q113 0 183 -73t70 -189q0 -117 -70 -188q-70 -72 -183 -72t-184 72q-70 71 -70 188z" />
<glyph unicode="9" d="M127 1038q0 -89 27 -166q27 -78 75 -131q50 -56 119 -86t156 -30q88 0 155 30l-327 -655h153l359 723q46 91 69 171q23 81 23 157q0 93 -29 172q-28 77 -81 133q-52 55 -128 85q-74 29 -168 29q-93 0 -166 -32q-74 -33 -127 -90q-52 -56 -81 -138q-29 -81 -29 -172z M274 1044q0 135 70 216q69 79 186 79q118 0 188 -79t70 -216q0 -136 -70 -215t-188 -79q-65 0 -111 23q-49 25 -80 64q-31 41 -48 93q-17 54 -17 114z" />
<glyph unicode=":" horiz-adv-x="608" d="M236 0h192v193h-192v-193zM236 616h192v193h-192v-193z" />
<glyph unicode=";" horiz-adv-x="608" d="M236 616h192v193h-192v-193zM240 180v-475l180 162v313h-180z" />
<glyph unicode="&#x3c;" horiz-adv-x="2103" d="M113 551l817 -817h192l-747 745h1616v144h-1616l747 745h-192z" />
<glyph unicode="=" d="M106 309h857v135h-857v-135zM106 655h857v138h-857v-138z" />
<glyph unicode="&#x3e;" horiz-adv-x="2103" d="M113 479h1616l-748 -745h193l817 817l-817 817h-193l748 -745h-1616v-144z" />
<glyph unicode="?" horiz-adv-x="1017" d="M156 1096h147q0 51 16 93q15 40 48 78q28 32 74 53q42 19 100 19q105 0 170 -68t65 -173q0 -54 -19 -92q-18 -37 -48 -82l-166 -240q-33 -46 -48 -90q-16 -46 -16 -102v-82h148v79q0 25 9 58q8 29 28 61l167 242q44 65 67 118q26 60 26 130q0 81 -30 150q-30 68 -81 118 q-52 50 -122 77q-71 27 -150 27q-87 0 -154 -29q-69 -30 -122 -80q-52 -49 -81 -119q-28 -68 -28 -146zM465 0h176v172h-176v-172z" />
<glyph unicode="@" horiz-adv-x="1460" d="M147 328q0 -65 8 -118q8 -52 25 -89t49 -72q25 -28 78 -67l101 100q-42 33 -58 50q-22 24 -36 51q-13 26 -18 63q-5 38 -5 84v690q0 89 17 136q18 50 65 97q46 46 98 64t125 18h266q72 0 128 -19t100 -63q43 -45 62 -99q17 -50 17 -134v-160q-52 66 -118 97 q-67 32 -156 32q-92 0 -164 -34q-76 -36 -119 -93q-47 -64 -65 -151q-19 -93 -19 -224q0 -134 19 -226q18 -86 71 -150q46 -59 120 -93q70 -32 159 -32q95 0 159 30q63 29 115 97v-113l142 -2v1018q0 213 -117 330q-114 114 -315 114h-303q-204 0 -316 -114 q-115 -118 -115 -330v-688zM674 487q0 68 8 140q7 65 35 119q27 53 76 84q50 32 129 32t129 -32q47 -30 75 -84t35 -119q8 -72 8 -140q0 -67 -8 -139q-7 -66 -35 -120t-75 -84q-49 -31 -129 -31t-129 31t-76 84q-28 54 -35 120q-8 72 -8 139z" />
<glyph unicode="A" horiz-adv-x="1251" d="M25 0h165l117 330h637l117 -330h166l-535 1458h-131zM354 465l275 770l270 -770h-545z" />
<glyph unicode="B" horiz-adv-x="1368" d="M211 0h567q95 0 176 26q83 27 138 76q58 52 89 127t31 174q0 131 -66 220q-65 88 -171 127q92 35 153 118q62 85 62 201q0 91 -32 164q-32 74 -88 122q-58 51 -136 77q-77 26 -174 26h-549v-1458zM367 139v535h397q134 0 214 -72q79 -72 79 -194q0 -124 -79 -196 q-81 -73 -214 -73h-397zM367 813v506h381q60 0 113 -15q49 -14 90 -47q39 -31 61 -77q22 -45 22 -113q0 -67 -22 -114q-23 -48 -61 -79q-39 -32 -90 -46q-53 -15 -113 -15h-381z" />
<glyph unicode="C" horiz-adv-x="1304" d="M156 729q0 -88 2 -204q1 -86 15 -155q13 -66 41 -124q27 -55 79 -107q72 -72 169 -112q94 -39 204 -39q101 0 182 29q85 30 150 85q68 57 111 137q44 82 62 183h-155q-28 -135 -121 -215q-92 -80 -229 -80q-73 0 -139 27q-69 28 -113 75q-36 36 -56 75q-19 37 -30 96 q-11 61 -14 136q-3 80 -3 193q0 115 3 194q3 74 14 135q11 59 30 96q20 39 56 75q45 48 113 76q64 26 139 26q136 0 227 -80q90 -80 119 -215h159q-18 102 -62 184q-42 78 -111 136q-65 55 -150 85q-81 29 -182 29q-112 0 -204 -38q-95 -39 -169 -113q-52 -52 -79 -107 q-28 -58 -41 -123q-13 -69 -15 -156q-2 -116 -2 -204z" />
<glyph unicode="D" horiz-adv-x="1378" d="M211 0h500q113 0 209 35q93 34 159 100q57 57 87 131q30 73 42 155q13 85 14 165q1 56 1 159q0 102 -1 155q-1 75 -14 154q-12 73 -42 143q-30 69 -87 126q-66 66 -159 100q-96 35 -209 35h-500v-1458zM367 139v1180h317q86 0 158 -24q73 -24 129 -83q35 -36 57 -92 q22 -54 29 -113q7 -60 9 -127q1 -44 1 -135t-1 -139q-2 -72 -9 -138q-7 -65 -29 -125t-57 -97q-56 -59 -129 -83q-72 -24 -158 -24h-317z" />
<glyph unicode="E" horiz-adv-x="1228" d="M211 0h905v139h-749v527h639v139h-639v514h749v139h-905v-1458z" />
<glyph unicode="F" horiz-adv-x="1187" d="M211 0h156v643h639v139h-639v537h749v139h-905v-1458z" />
<glyph unicode="G" horiz-adv-x="1331" d="M156 729q0 -88 2 -204q1 -86 15 -155q13 -66 41 -124q27 -55 79 -107q72 -72 169 -112q94 -39 204 -39q113 0 212 42t177 126q68 72 96 160q29 90 29 216v232h-514v-137h358v-111q0 -85 -18 -148q-18 -62 -64 -116q-50 -61 -124 -93q-73 -32 -152 -32q-73 0 -139 27 q-69 28 -113 75q-36 36 -56 75q-19 37 -30 96q-11 61 -14 136q-3 80 -3 193q0 115 3 194q3 75 14 134q11 58 30 95q20 39 56 75q47 50 113 77t139 27q138 0 230 -79q94 -81 124 -218h156q-16 95 -59 176q-44 83 -107 139q-66 59 -153 90q-86 31 -191 31q-222 0 -373 -151 q-52 -52 -79 -107q-28 -58 -41 -123q-13 -69 -15 -156q-2 -116 -2 -204z" />
<glyph unicode="H" horiz-adv-x="1425" d="M211 0h156v666h692v-666h155v1458h-155v-653h-692v653h-156v-1458z" />
<glyph unicode="I" horiz-adv-x="577" d="M211 0h156v1458h-156v-1458z" />
<glyph unicode="J" horiz-adv-x="1026" d="M47 119q69 -69 149 -100t185 -31q102 0 183 31q83 32 144 91q60 58 94 143q34 84 34 189v1016h-156v-995q0 -162 -78 -249t-221 -87q-89 0 -140 28q-50 27 -89 68z" />
<glyph unicode="K" horiz-adv-x="1331" d="M211 0h156v408l307 368l444 -776h185l-525 895l459 563h-190l-680 -837v837h-156v-1458z" />
<glyph unicode="L" horiz-adv-x="1173" d="M211 0h901v139h-745v1319h-156v-1458z" />
<glyph unicode="M" horiz-adv-x="1671" d="M211 0h156v1108l405 -879h133l400 879v-1108h155v1458h-155l-463 -1034l-475 1034h-156v-1458z" />
<glyph unicode="N" horiz-adv-x="1499" d="M211 0h156v1169l774 -1169h147v1458h-155v-1165l-775 1165h-147v-1458z" />
<glyph unicode="O" horiz-adv-x="1331" d="M156 729q0 -88 2 -204q1 -86 15 -155q13 -66 41 -124q27 -55 79 -107q151 -151 373 -151q110 0 204 39q95 39 168 112q52 52 79 107q28 58 41 124q15 75 16 155q2 116 2 204t-2 204q-1 81 -16 156q-13 65 -41 123q-27 55 -79 107q-151 151 -372 151q-222 0 -373 -151 q-52 -52 -79 -107q-28 -58 -41 -123q-13 -69 -15 -156q-2 -116 -2 -204zM311 729q0 115 3 194q3 75 14 134q11 58 30 95q20 39 56 75q47 50 113 77t139 27q72 0 138 -27q68 -28 114 -77q33 -33 55 -75q21 -40 31 -95q10 -52 13 -134q3 -79 3 -194q0 -113 -3 -193 q-3 -83 -13 -135q-10 -55 -31 -95q-22 -42 -55 -75q-45 -48 -114 -76q-68 -28 -138 -28q-71 0 -139 28t-113 76q-36 36 -56 75q-19 37 -30 95q-11 59 -14 135q-3 80 -3 193z" />
<glyph unicode="P" horiz-adv-x="1290" d="M211 0h156v600h387q98 0 183 31q81 29 142 86q58 54 92 135q33 80 33 178t-33 177t-92 135t-142 86t-183 30h-543v-1458zM367 739v580h372q139 0 224 -72q86 -72 86 -217q0 -146 -86 -218q-87 -73 -224 -73h-372z" />
<glyph unicode="Q" horiz-adv-x="1329" d="M156 729q0 -88 2 -204q1 -86 15 -155q13 -66 41 -124q27 -55 79 -107q151 -151 373 -151q180 0 313 102l162 -162l94 95l-160 159q36 44 58 100q20 49 29 116q11 77 12 146q2 108 2 185q0 88 -2 204q-1 81 -16 156q-13 65 -41 123q-27 55 -79 107q-151 151 -372 151 q-222 0 -373 -151q-52 -52 -79 -107q-28 -58 -41 -123q-13 -69 -15 -156q-2 -116 -2 -204zM311 729q0 115 3 194q3 75 14 134q11 58 30 95q20 39 56 75q47 50 113 77t139 27q72 0 138 -27q68 -28 114 -77q33 -33 55 -75q21 -40 31 -95q10 -52 13 -134q3 -79 3 -194 q0 -67 -2 -155q-1 -62 -8 -116q-6 -50 -18 -89q-14 -45 -31 -72l-179 178l-94 -94l184 -184q-93 -70 -206 -70q-71 0 -139 28t-113 76q-36 36 -56 75q-19 37 -30 95q-11 59 -14 135q-3 80 -3 193z" />
<glyph unicode="R" horiz-adv-x="1343" d="M211 0h156v647h350l332 -647h182l-346 662q141 28 229 130q88 101 88 261q0 92 -32 170q-31 74 -89 128q-58 53 -137 80q-80 27 -174 27h-559v-1458zM367 784v535h389q128 0 210 -67q81 -66 81 -201t-81 -201t-210 -66h-389z" />
<glyph unicode="S" horiz-adv-x="1204" d="M86 180q102 -102 219 -147t281 -45q115 0 206 28t159 82q67 53 103 130q36 76 36 173q0 184 -123 289q-23 21 -48 36q-28 16 -57 28q-31 12 -70 21q-59 13 -92 18l-159 24q-60 11 -110 31q-54 21 -87 49q-65 56 -65 168q0 124 79 197t228 73q117 0 194 -31t146 -94 l100 101q-95 85 -195 122q-99 37 -239 37q-112 0 -195 -29q-85 -30 -146 -83q-59 -52 -93 -130q-33 -76 -33 -169q0 -174 111 -273q93 -81 268 -110l170 -27q84 -13 118 -25q37 -13 72 -44q33 -29 52 -78q18 -47 18 -105q0 -128 -92 -199t-252 -71q-122 0 -215 35 q-91 35 -182 125z" />
<glyph unicode="T" horiz-adv-x="1122" d="M61 1319h422v-1319h156v1319h422v139h-1000v-139z" />
<glyph unicode="U" horiz-adv-x="1398" d="M190 481q0 -106 38 -199q36 -89 106 -157q65 -64 161 -101q93 -36 203 -36q111 0 204 36q95 37 162 101q69 66 106 157q38 93 38 199v977h-155v-964q0 -83 -26 -152t-72 -115q-47 -47 -111 -73q-66 -27 -146 -27q-79 0 -145 27t-112 73q-45 45 -70 115t-25 152v964h-156 v-977z" />
<glyph unicode="V" horiz-adv-x="1118" d="M16 1458l480 -1458h127l479 1458h-164l-379 -1179l-379 1179h-164z" />
<glyph unicode="W" horiz-adv-x="1748" d="M33 1458l373 -1458h145l323 1167l324 -1167h145l373 1458h-166l-284 -1175l-322 1175h-139l-322 -1175l-284 1175h-166z" />
<glyph unicode="X" horiz-adv-x="1128" d="M31 0h176l356 612l355 -612h180l-451 748l420 710h-180l-324 -575l-323 575h-181l418 -710z" />
<glyph unicode="Y" horiz-adv-x="1052" d="M16 1458l435 -856v-602h155v602l430 856h-168l-340 -698l-344 698h-168z" />
<glyph unicode="Z" horiz-adv-x="1138" d="M117 0h905v139h-735l735 1188v131h-877v-139h701l-729 -1172v-147z" />
<glyph unicode="[" horiz-adv-x="641" d="M188 -152h363v132h-215v1499h215v131h-363v-1762z" />
<glyph unicode="\" horiz-adv-x="727" d="M0 1604l582 -1756h145l-582 1756h-145z" />
<glyph unicode="]" horiz-adv-x="641" d="M90 -25v-127h363v1762h-363v-127h221v-1508h-221z" />
<glyph unicode="^" horiz-adv-x="1099" d="M147 846h152l252 467l250 -467h151l-334 624h-135z" />
<glyph unicode="_" horiz-adv-x="1099" d="M0 -233v-105h1100v105h-1100z" />
<glyph unicode="`" horiz-adv-x="1024" d="M256 1530l221 -313h135l-180 313h-176z" />
<glyph unicode="a" horiz-adv-x="1077" d="M104 285q0 -59 20 -114t56 -91q47 -50 114 -71q66 -21 171 -21q103 0 165 23q65 24 126 85v-96h147v684q0 166 -99 251q-98 85 -304 85q-121 0 -206 -31q-83 -30 -151 -119l101 -92q46 64 100 89q57 26 154 26q139 0 198 -55q60 -56 60 -166v-97h-303q-172 0 -259 -78 q-90 -81 -90 -212zM248 287q0 178 225 178h283v-109q0 -124 -51 -174q-46 -46 -104 -57q-54 -10 -122 -10q-121 0 -176 42t-55 130z" />
<glyph unicode="b" horiz-adv-x="1116" d="M184 0h148v121q62 -80 131 -107q66 -26 153 -26q82 0 142 23q63 24 104 65q39 39 63 88t37 105q14 57 18 116q5 67 5 119t-5 119q-4 57 -18 115t-37 106q-24 49 -63 88t-104 64q-63 24 -142 24q-83 0 -153 -26t-131 -103v567h-148v-1458zM332 504q0 74 9 143q9 71 36 123 q27 53 77 86t132 33t132 -33t77 -86q26 -51 34 -123q9 -83 9 -143q0 -61 -9 -144q-8 -71 -34 -122q-27 -53 -77 -86t-132 -33t-132 33t-77 86q-27 52 -36 122q-9 69 -9 144z" />
<glyph unicode="c" horiz-adv-x="1003" d="M129 504q0 -130 34 -226q35 -98 94 -162q61 -66 141 -97t177 -31q107 0 180 32t152 117l-100 96q-57 -63 -109 -89q-50 -25 -123 -25q-74 0 -133 28t-100 86q-35 51 -50 112q-16 67 -16 159t16 159q14 60 50 111q41 58 100 86q61 29 133 29q70 0 123 -25q51 -24 109 -88 l100 94q-79 85 -152 117q-75 33 -180 33q-96 0 -177 -33q-82 -33 -141 -97q-59 -63 -94 -161q-34 -95 -34 -225z" />
<glyph unicode="d" horiz-adv-x="1116" d="M131 504q0 -52 5 -119q4 -52 19 -116q14 -60 36 -105q24 -49 63 -88q41 -41 104 -65q60 -23 142 -23q86 0 154 26q70 27 132 107v-121h146v1458h-148v-567q-61 77 -131 103t-153 26q-79 0 -142 -24q-65 -25 -104 -64t-63 -88q-21 -44 -36 -106q-15 -64 -19 -115 q-5 -67 -5 -119zM279 504q0 74 9 143q9 71 36 123q28 54 76 86q50 33 132 33q84 0 133 -33q48 -32 76 -86q27 -53 35 -123q8 -74 8 -143q0 -70 -8 -144q-7 -68 -35 -122t-76 -86q-49 -33 -133 -33q-82 0 -132 33q-48 32 -76 86q-27 52 -36 122q-9 69 -9 144z" />
<glyph unicode="e" horiz-adv-x="1085" d="M129 504q0 -132 32 -231q31 -96 89 -160q60 -66 138 -95q81 -30 181 -30q66 0 116 10q51 10 95 30t81 48q42 32 77 67l-100 88q-60 -60 -118 -87t-147 -27q-145 0 -221 91t-76 257h680v67q0 226 -108 357t-305 131q-192 0 -303 -135t-111 -381zM276 575q1 53 9 95 q6 34 22 73q29 71 92 111q64 41 144 41q79 0 143 -41q63 -40 92 -111l7 -17.5t7 -19.5q6 -24 8 -36q4 -23 5 -41q0 -4 1.5 -23t2.5 -31h-533z" />
<glyph unicode="f" horiz-adv-x="643" d="M88 889h129v-889h148v889h215v112h-215v187q0 70 31 108q31 39 104 39h80v127h-107q-67 0 -113 -21q-45 -20 -79 -59q-35 -40 -49 -86q-15 -50 -15 -104v-191h-129v-112z" />
<glyph unicode="g" horiz-adv-x="1112" d="M131 512q0 -122 24 -233q24 -112 99 -187q42 -42 103 -65q66 -25 141 -25q82 0 151 27q71 28 131 104v-158q0 -64 -15 -121q-15 -59 -49 -98q-36 -42 -86 -65q-55 -25 -126 -25q-43 0 -76 6q-31 6 -60 20q-30 15 -54 32q-18 12 -52 43l-96 -95q34 -33 77 -62 q37 -26 78 -42q41 -17 85 -24q42 -7 102 -7q98 0 177 33t132 90q54 59 82 136q29 81 29 173v1039h-146v-119q-62 80 -130 105q-70 26 -152 26q-79 0 -142 -24q-65 -25 -104 -64q-75 -75 -99 -187q-24 -111 -24 -233zM279 512q0 64 8 138q7 67 35 121q27 52 76 85 q50 33 132 33t132 -33q48 -32 75 -85q28 -54 35 -121q8 -74 8 -138q0 -67 -8 -139q-7 -66 -35 -120q-27 -53 -75 -85q-50 -33 -132 -33t-132 33q-49 33 -76 85q-28 54 -35 120q-8 72 -8 139z" />
<glyph unicode="h" horiz-adv-x="1150" d="M184 0h148v623q0 131 68 198q70 68 184 68q113 0 180 -67q65 -65 65 -199v-623h148v647q0 172 -95 273q-94 100 -268 100t-282 -123v561h-148v-1458z" />
<glyph unicode="i" horiz-adv-x="518" d="M176 1294h166v166h-166v-166zM184 0h148v1008h-148v-1008z" />
<glyph unicode="j" horiz-adv-x="518" d="M-31 -324v-129h107q65 0 113 21q51 22 80 57q33 39 47 86q16 53 16 107v1183h-148v-1177q0 -74 -28 -111t-107 -37h-80zM176 1294h166v166h-166v-166z" />
<glyph unicode="k" horiz-adv-x="1097" d="M184 0h148v291l196 225l320 -516h182l-401 623l342 385h-185l-454 -525v975h-148v-1458z" />
<glyph unicode="l" horiz-adv-x="608" d="M180 268q0 -114 62 -191t194 -77h107v127h-80q-79 0 -107 37t-28 110v1184h-148v-1190z" />
<glyph unicode="m" horiz-adv-x="1800" d="M184 0h148v621q0 133 68 200q70 68 184 68t181 -67q66 -66 66 -201v-621h148v637q0 120 71 186q70 66 181 66q114 0 181 -67t67 -201v-621h147v645q0 176 -108 281q-46 45 -113 69q-69 25 -148 25q-213 0 -331 -168q-46 84 -126 126t-184 42q-84 0 -158 -31t-126 -92v111 h-148v-1008z" />
<glyph unicode="n" horiz-adv-x="1150" d="M184 0h148v621q0 133 67 200q68 68 183 68q114 0 181 -67q66 -66 66 -201v-621h148v645q0 179 -105 281q-94 94 -258 94q-83 0 -157 -31q-72 -30 -125 -92v111h-148v-1008z" />
<glyph unicode="o" horiz-adv-x="1085" d="M131 504q0 -53 5 -115q4 -50 19 -105q16 -58 36 -97q23 -45 63 -85q55 -55 125 -84q72 -30 164 -30t164 30q69 29 124 84q76 77 100 182q23 99 23 220t-23 220q-24 104 -100 181q-55 55 -124 84q-74 31 -164 31t-164 -31q-70 -29 -125 -84q-40 -40 -63 -85 q-21 -40 -36 -96q-15 -54 -19 -107q-5 -63 -5 -113zM279 504q0 28 2 86q1 41 11 84q9 42 24 77q14 34 44 64q74 74 183 74q110 0 184 -74q26 -28 43 -64q18 -39 25 -77q9 -47 10 -84q2 -58 2 -86t-2 -86q-1 -37 -10 -84q-7 -37 -25 -78q-16 -36 -43 -63q-74 -74 -184 -74 q-109 0 -183 74q-30 29 -44 63q-15 38 -24 78q-10 43 -11 84q-2 58 -2 86z" />
<glyph unicode="p" horiz-adv-x="1116" d="M184 -451h148v570q61 -78 131 -105q66 -26 153 -26q82 0 142 23q63 24 104 65q39 39 63 88t37 105q14 57 18 116q5 67 5 119t-5 119q-4 57 -18 115t-37 106q-24 49 -63 88t-104 64q-63 24 -142 24q-83 0 -153 -26t-131 -105v119h-148v-1459zM332 504q0 74 9 143 q9 71 36 123q27 53 77 86t132 33t132 -33t77 -86q26 -51 34 -123q9 -83 9 -143q0 -61 -9 -144q-8 -71 -34 -122q-27 -53 -77 -86t-132 -33t-132 33t-77 86q-27 52 -36 122q-9 69 -9 144z" />
<glyph unicode="q" horiz-adv-x="1116" d="M131 504q0 -52 5 -119q4 -52 19 -116q14 -60 36 -105q24 -49 63 -88q41 -41 104 -65q60 -23 142 -23q87 0 153 26q70 27 131 105v-570h148v1459h-146v-119q-62 79 -132 105q-72 26 -154 26q-79 0 -142 -24q-65 -25 -104 -64t-63 -88q-21 -44 -36 -106q-15 -64 -19 -115 q-5 -67 -5 -119zM279 504q0 74 9 143q9 71 36 123q28 54 76 86q50 33 132 33q84 0 133 -33q48 -32 76 -86q27 -53 35 -123q8 -74 8 -143q0 -70 -8 -144q-7 -68 -35 -122t-76 -86q-49 -33 -133 -33q-82 0 -132 33q-48 32 -76 86q-27 52 -36 122q-9 69 -9 144z" />
<glyph unicode="r" horiz-adv-x="862" d="M184 0h148v618q0 60 17 107q17 48 48 86q27 34 76 57q45 21 100 21q58 0 97 -17q38 -16 78 -57l108 111q-51 51 -112 73q-58 21 -130 21q-88 0 -164 -36q-78 -37 -118 -99v123h-148v-1008z" />
<glyph unicode="s" horiz-adv-x="1015" d="M88 133q85 -81 184 -113q97 -32 230 -32q96 0 167 20q76 21 129 61q55 41 84 96t29 130q0 70 -21 119q-20 47 -61 82q-38 32 -94 49q-53 16 -121 22l-161 15q-97 8 -137 45t-40 102q0 78 58 122t168 44q79 0 146 -19q68 -19 122 -61l96 96q-67 55 -160 82t-202 27 q-80 0 -149 -21q-68 -21 -117 -58q-50 -38 -77 -92q-28 -56 -28 -124q0 -125 77 -191q78 -67 224 -79l166 -15q87 -7 128 -45q40 -37 40 -102q0 -91 -72 -134q-73 -44 -196 -44q-97 0 -174 26q-80 27 -140 90z" />
<glyph unicode="t" horiz-adv-x="679" d="M82 889h127v-619q0 -56 16 -104t48 -86q31 -36 80 -58q50 -22 114 -22h104v127h-77q-72 0 -105 39t-33 108v615h215v112h-215v316h-147v-316h-127v-112z" />
<glyph unicode="u" horiz-adv-x="1150" d="M174 365q0 -86 25 -159q24 -71 77 -124q94 -94 261 -94q87 0 158 31q73 32 126 94v-113h146v1008h-148v-621q0 -134 -68 -201t-184 -67q-114 0 -180 66q-65 65 -65 202v621h-148v-643z" />
<glyph unicode="v" horiz-adv-x="915" d="M23 1008l368 -1008h131l371 1008h-160l-276 -809l-275 809h-159z" />
<glyph unicode="w" horiz-adv-x="1482" d="M23 1008l319 -1008h137l262 782l265 -782h137l317 1008h-160l-229 -809l-266 809h-127l-264 -809l-232 809h-159z" />
<glyph unicode="x" horiz-adv-x="978" d="M68 0h178l246 391l241 -391h178l-342 514l328 494h-178l-227 -373l-232 373h-178l328 -494z" />
<glyph unicode="y" horiz-adv-x="915" d="M23 1008l362 -988l-72 -196q-24 -70 -57 -97q-34 -28 -109 -28h-45v-131h64q53 0 104 15q50 15 92 55q44 39 72 118l459 1252h-160l-274 -809l-277 809h-159z" />
<glyph unicode="z" horiz-adv-x="940" d="M102 0h732v131h-564l564 752v125h-701v-131h531l-562 -750v-127z" />
<glyph unicode="{" horiz-adv-x="724" d="M98 664h54q27 0 52 -11t40 -26q37 -37 37 -123v-391q0 -82 13 -124q14 -45 48 -79q32 -32 81 -47q48 -15 126 -15h76v132h-47q-51 0 -79 5q-25 5 -42 21q-17 17 -23 47t-6 86v385q0 88 -35 132q-36 45 -94 73q58 28 94 73q35 44 35 132v385q0 56 6 86t23 47q18 18 42 22 q28 5 79 5h47v131h-76q-78 0 -126 -15q-49 -15 -81 -47q-34 -34 -48 -79q-13 -42 -13 -123v-392q0 -86 -37 -123q-15 -15 -40 -26q-23 -10 -52 -10h-54v-131z" />
<glyph unicode="|" horiz-adv-x="667" d="M260 -152h148v1762h-148v-1762z" />
<glyph unicode="}" horiz-adv-x="724" d="M98 -20v-132h78q78 0 126 15q49 15 81 47q34 34 48 79q13 42 13 124v391q0 86 37 123q15 15 40 26t52 11h52v131h-52q-29 0 -52 10q-25 11 -40 26q-37 37 -37 123v392q0 81 -13 123q-14 45 -48 79q-32 32 -81 47q-48 15 -126 15h-78v-131h49q51 0 78 -5q23 -4 41 -22 q16 -16 24 -47q7 -28 7 -86v-385q0 -88 35 -132q36 -45 94 -73q-58 -28 -94 -73q-35 -44 -35 -132v-385q0 -58 -7 -86q-8 -31 -24 -47t-41 -21q-27 -5 -78 -5h-49z" />
<glyph unicode="~" horiz-adv-x="1103" d="M100 543l90 -92q24 24 54 48q17 13 42 27q21 11 37 14q18 3 39 3q42 0 79 -15q62 -25 81 -34q62 -28 112 -45q55 -19 105 -19q32 0 65 5q24 4 59 21q25 13 64 43q32 25 77 70l-93 93q-33 -33 -53 -49q-17 -13 -42 -27q-21 -11 -38 -14q-18 -3 -39 -3q-41 0 -79 15 q-56 22 -80 34q-70 32 -111 46q-51 18 -104 18q-35 0 -65 -6q-25 -5 -59 -22q-29 -14 -64 -42q-37 -29 -77 -69z" />
<glyph unicode="&#xa1;" horiz-adv-x="647" d="M203 836h176v172h-176v-172zM207 -451h170l-23 1049h-127z" />
<glyph unicode="&#xa2;" horiz-adv-x="1019" d="M129 750q0 -225 100 -355q101 -131 271 -155v-240h121v236q95 6 158 39q69 36 139 112l-101 94q-52 -59 -97 -83q-44 -24 -108 -29v761q64 -5 108 -29q45 -24 97 -83l101 94q-70 76 -139 112q-65 34 -158 40v194h-121v-198q-169 -24 -271 -156q-100 -130 -100 -354z M276 750q0 93 17 158q16 62 51 112q63 88 164 106v-753q-101 18 -164 106q-35 50 -51 112q-17 65 -17 159z" />
<glyph unicode="&#xa3;" horiz-adv-x="1122" d="M96 676h129v-676h791v139h-633v537h299v110h-299v209q0 162 78 249t221 87q47 0 79 -7q35 -8 60 -20q26 -13 47 -31t41 -38l107 104q-69 69 -149 100t-185 31q-101 0 -184 -31q-86 -32 -145 -90t-94 -144q-34 -84 -34 -189v-230h-129v-110z" />
<glyph unicode="&#xa4;" horiz-adv-x="1351" d="M160 133l94 -94l152 151q58 -42 123 -65q72 -25 147 -25t145 25q66 24 123 65l154 -151l94 94l-152 152q44 60 66 124q24 69 24 146t-24 146q-22 64 -66 124l152 150l-94 94l-154 -149q-54 40 -123 64q-68 24 -145 24q-78 0 -147 -24q-67 -23 -123 -64l-152 149l-94 -94 l151 -150q-42 -57 -65 -124q-25 -72 -25 -146t25 -146q23 -67 65 -124zM356 555q0 64 26 124q25 57 69 101q45 45 101 68q58 24 124 24t124 -24q56 -23 101 -68t68 -101q24 -59 24 -124t-24 -124q-23 -56 -68 -101q-44 -44 -101 -69t-124 -25t-124 25t-101 69t-69 101 q-26 60 -26 124z" />
<glyph unicode="&#xa5;" horiz-adv-x="1052" d="M16 1458l322 -637h-205v-110h262l54 -109v-106h-316v-113h316v-383h157v383h314v113h-314v106l53 109h261v110h-205l321 637h-166l-342 -698l-344 698h-168z" />
<glyph unicode="&#xa6;" horiz-adv-x="686" d="M260 -152h148v717h-148v-717zM260 893h148v717h-148v-717z" />
<glyph unicode="&#xa7;" horiz-adv-x="1140" d="M178 516q0 -139 73 -238q72 -98 208 -137l159 -45q88 -25 134 -81q47 -58 47 -128q0 -103 -62 -159t-166 -56t-165 49t-72 146h-150q4 -82 37 -143q34 -63 85 -104t121 -62q69 -21 144 -21q77 0 149 25q71 25 119 70q51 48 80 112t29 145q0 114 -55 188t-143 107 q37 19 78 52q39 32 68 73q31 44 48 95q19 55 19 116q0 138 -73 238q-71 97 -208 137l-160 45q-79 23 -125 69q-47 47 -47 128q0 100 59 151q58 51 162 51q97 0 158 -44q60 -44 68 -146h147q-5 74 -33 134q-30 62 -77 101q-51 42 -116 64t-147 22q-79 0 -147 -24 q-65 -23 -117 -69q-51 -45 -77 -106q-27 -63 -27 -136q0 -113 51 -178t139 -105q-42 -22 -80 -51q-36 -28 -68 -74q-31 -44 -48 -95q-19 -55 -19 -116zM328 518q0 65 16 107q16 43 51 82q67 73 176 73q104 0 177 -73q38 -38 52 -84q13 -43 13 -105q0 -68 -17 -109 q-19 -45 -48 -79q-68 -74 -177 -74q-108 0 -176 74q-29 33 -48 78q-19 44 -19 110z" />
<glyph unicode="&#xa8;" horiz-adv-x="1024" d="M221 1233h148v182h-148v-182zM655 1233h148v182h-148v-182z" />
<glyph unicode="&#xa9;" horiz-adv-x="1804" d="M160 729q0 -155 58 -289t159 -235t235 -159t289 -58t289 58t235 159t159 235t58 289t-58 289t-159 235t-235 159t-289 58t-289 -58t-235 -159t-159 -235t-58 -289zM281 729q0 130 48 244q49 117 133 201q88 88 197 136q114 50 242 50t243 -50q111 -48 197 -136 q84 -85 134 -201q49 -113 49 -244t-49 -244q-49 -114 -134 -200q-88 -90 -197 -137q-115 -50 -243 -50t-242 50q-107 47 -197 137q-84 84 -133 200q-48 114 -48 244zM547 729q0 -93 23 -166q24 -76 70 -131q46 -56 114 -87q69 -32 157 -32q87 0 148 27q59 26 121 80l-74 74 q-52 -46 -94 -62t-101 -16q-69 0 -117 24t-77 68t-42 99t-13 122q0 66 13 121q13 56 42 100q28 43 77 69q47 25 117 25q60 0 101 -17q45 -18 94 -62l74 73q-62 54 -123 82q-60 27 -146 27q-88 0 -157 -32q-68 -31 -114 -87q-46 -55 -70 -132q-23 -73 -23 -167z" />
<glyph unicode="&#xaa;" horiz-adv-x="919" d="M115 879q0 -97 61 -162q39 -39 90 -57q48 -17 135 -17q75 0 129 19q53 19 99 65v-74h119v543q0 132 -78 201t-240 69q-100 0 -165 -25q-66 -26 -122 -98l84 -75q37 50 81 70q45 20 120 20q112 0 155 -43q44 -44 44 -129v-74h-236q-135 0 -206 -63q-70 -63 -70 -170z M236 883q0 137 172 137h219v-82q0 -100 -39 -137q-39 -36 -81 -43q-46 -8 -95 -8q-93 0 -134 32q-42 33 -42 101z" />
<glyph unicode="&#xab;" horiz-adv-x="1134" d="M82 549l430 -430v182l-246 248l246 246v184zM545 549l430 -430v182l-248 248l248 246v184z" />
<glyph unicode="&#xac;" d="M104 492h723v-281h138v418h-861v-137z" />
<glyph unicode="&#xad;" horiz-adv-x="872" d="M156 483h561v138h-561v-138z" />
<glyph unicode="&#xae;" horiz-adv-x="1804" d="M160 729q0 -155 58 -289t159 -235t235 -159t289 -58t289 58t235 159t159 235t58 289t-58 289t-159 235t-235 159t-289 58t-289 -58t-235 -159t-159 -235t-58 -289zM279 729q0 133 49 246q51 118 133 201q86 88 197 136q115 50 243 50t243 -50q110 -48 198 -136 q84 -84 135 -201q49 -113 49 -246t-49 -246q-50 -115 -135 -200q-90 -90 -198 -137q-115 -50 -243 -50t-243 50q-109 47 -197 137q-83 84 -133 200q-49 113 -49 246zM659 324h113v331h123l186 -331h131l-194 346q75 22 125 78q49 55 49 145q0 51 -21 96q-21 46 -55 78 q-34 33 -81 51q-49 19 -99 19h-277v-813zM772 752v284h152q66 0 110 -41q43 -40 43 -102q0 -61 -43 -101t-110 -40h-152z" />
<glyph unicode="&#xaf;" horiz-adv-x="1024" d="M203 1257h618v117h-618v-117z" />
<glyph unicode="&#xb0;" horiz-adv-x="948" d="M137 1141q0 -69 27 -131q28 -63 73 -107q47 -46 107 -72q59 -26 131 -26t131 26q62 27 107 72q43 43 71 107q27 62 27 131q0 70 -27 131q-27 62 -71 106q-45 45 -107 72t-131 27t-131 -27q-60 -26 -107 -72q-46 -45 -73 -106t-27 -131zM262 1141q0 43 17 85q15 37 44 69 q26 29 66 46t84 17t84 -17q41 -17 68 -46q30 -31 45 -69q16 -39 16 -85q0 -48 -16 -86t-44 -69q-26 -29 -67 -46q-38 -16 -84 -16t-84 16q-39 16 -67 46t-45 69q-17 40 -17 86z" />
<glyph unicode="&#xb1;" d="M106 0h857v137h-857v-137zM106 592h361v-363h137v363h359v137h-359v358h-137v-358h-361v-137z" />
<glyph unicode="&#xb2;" horiz-adv-x="700" d="M98 584h504v106h-362l282 344q43 52 61 90q19 39 19 99q0 112 -71 178q-69 65 -181 65q-110 0 -181 -66t-71 -177h119q0 76 40 106q42 31 93 31q64 0 99 -38q34 -37 34 -99q0 -37 -11 -62q-12 -27 -36 -57l-338 -414v-106z" />
<glyph unicode="&#xb3;" horiz-adv-x="729" d="M98 817q1 -60 25 -109q23 -47 59 -76q35 -28 84 -44q46 -15 101 -15q54 0 103 17q48 16 84 48q34 30 56 80q21 48 21 111q0 83 -33 132t-92 73q53 24 82 71q28 46 28 118q0 111 -70 177t-181 66q-106 0 -177 -62t-77 -173h116q5 60 41 94q38 35 97 35q54 0 95 -35 q40 -34 40 -104q0 -65 -34 -102q-35 -38 -106 -38h-18v-102h18q79 0 116 -40q38 -41 38 -110q0 -71 -42 -110t-105 -39q-59 0 -102 33q-44 33 -48 104h-119z" />
<glyph unicode="&#xb4;" horiz-adv-x="1024" d="M412 1217h135l221 313h-176z" />
<glyph unicode="&#xb6;" horiz-adv-x="1234" d="M86 1061q0 -75 29 -147q29 -70 81 -126q52 -55 127 -88q73 -32 166 -32v-1119h148v1770h240v-1770h147v1909h-494q-103 0 -187 -32q-81 -31 -140 -85q-56 -52 -87 -126q-30 -72 -30 -154z" />
<glyph unicode="&#xb7;" horiz-adv-x="552" d="M180 457h193v192h-193v-192z" />
<glyph unicode="&#xb8;" horiz-adv-x="1024" d="M358 -442h162l121 305h-137z" />
<glyph unicode="&#xb9;" horiz-adv-x="534" d="M88 1178l170 149v-743h117v874h-117l-170 -145v-135z" />
<glyph unicode="&#xba;" horiz-adv-x="931" d="M137 1055q0 -89 19 -175q18 -82 80 -145q41 -41 98 -65q59 -25 131 -25t131 25q57 24 98 65q62 63 80 145q19 86 19 175q0 87 -19 174q-18 81 -80 145q-42 42 -98 67t-131 25t-131 -25t-98 -67q-62 -64 -80 -145q-19 -87 -19 -174zM260 1055q0 65 9 133q9 66 53 110 q58 58 143 58t143 -58q44 -44 54 -110q10 -64 10 -133t-10 -132q-11 -67 -54 -110q-30 -30 -65 -44q-37 -15 -78 -15t-78 15q-35 14 -65 44q-44 44 -53 110t-9 132z" />
<glyph unicode="&#xbb;" horiz-adv-x="1134" d="M160 119l430 430l-430 430v-184l248 -246l-248 -248v-182zM623 119l430 430l-430 430v-184l245 -246l-245 -248v-182z" />
<glyph unicode="&#xbc;" horiz-adv-x="1591" d="M88 1178l170 149v-743h117v874h-117l-170 -145v-135zM354 0h123l682 1458h-123zM946 131h352v-131h115v131h96v109h-96v215h-115v-215h-223l307 634h-127l-309 -634v-109z" />
<glyph unicode="&#xbd;" horiz-adv-x="1617" d="M88 1178l170 149v-743h117v874h-117l-170 -145v-135zM330 0h123l682 1458h-123zM1016 0h504v106h-361l281 345q40 49 60 90q20 42 20 98q0 112 -71 178t-181 66t-182 -67q-70 -66 -70 -177h119q0 76 40 106q42 31 93 31q63 0 98 -38t35 -99q0 -36 -11 -61 q-13 -29 -36 -58l-338 -414v-106z" />
<glyph unicode="&#xbe;" horiz-adv-x="1683" d="M98 817q1 -60 25 -109q23 -47 59 -76q35 -28 84 -44q46 -15 101 -15q54 0 103 17q48 16 84 48q34 30 56 80q21 48 21 111q0 83 -33 132t-92 73q53 24 82 71q28 46 28 118q0 111 -70 177t-181 66q-106 0 -177 -62t-77 -173h116q5 60 41 94q38 35 97 35q54 0 95 -35 q40 -34 40 -104q0 -65 -34 -102q-35 -38 -106 -38h-18v-102h18q79 0 116 -40q38 -41 38 -110q0 -71 -42 -110t-105 -39q-59 0 -102 33q-44 33 -48 104h-119zM461 0h123l684 1458h-123zM1038 131h353v-131h114v131h97v109h-97v215h-114v-215h-226l310 634h-127l-310 -634 v-109z" />
<glyph unicode="&#xbf;" horiz-adv-x="1017" d="M94 -88q0 -82 30 -151t82 -118q55 -52 123 -78q73 -28 150 -28q81 0 153 29q70 29 122 80q52 52 80 120t28 146h-147q0 -47 -17 -92q-15 -41 -47 -77q-29 -33 -73 -53q-45 -20 -99 -20q-105 0 -171 69t-66 173q0 54 19 92q18 37 48 82l166 238q32 45 49 90t17 102v84 h-148v-82q0 -24 -9 -57q-8 -31 -28 -62l-168 -241q-39 -58 -67 -117q-27 -57 -27 -129zM379 836h174v172h-174v-172z" />
<glyph unicode="&#xc0;" horiz-adv-x="1251" d="M25 0h165l117 330h637l117 -330h166l-535 1458h-131zM354 465l275 770l270 -770h-545zM362 1913l222 -314h135l-180 314h-177z" />
<glyph unicode="&#xc1;" horiz-adv-x="1251" d="M25 0h165l117 330h637l117 -330h166l-535 1458h-131zM354 465l275 770l270 -770h-545zM518 1599h135l221 314h-176z" />
<glyph unicode="&#xc2;" horiz-adv-x="1251" d="M25 0h165l117 330h637l117 -330h166l-535 1458h-131zM293 1599h141l184 213l185 -213h141l-256 314h-139zM354 465l275 770l270 -770h-545z" />
<glyph unicode="&#xc3;" horiz-adv-x="1251" d="M25 0h165l117 330h637l117 -330h166l-535 1458h-131zM289 1726l76 -73q45 45 70 55q24 10 50 10q33 0 59 -13q31 -15 56 -30q40 -24 70 -35q33 -12 75 -12q35 0 80 18q47 19 115 87l-76 73q-45 -45 -71 -55t-50 -10q-32 0 -56 10q-26 11 -58 31q-35 20 -70 36 q-29 13 -76 13q-18 0 -39 -3q-23 -3 -43 -14q-28 -15 -50 -32q-27 -21 -62 -56zM354 465l275 770l270 -770h-545z" />
<glyph unicode="&#xc4;" horiz-adv-x="1251" d="M25 0h165l117 330h637l117 -330h166l-535 1458h-131zM328 1616h147v182h-147v-182zM354 465l275 770l270 -770h-545zM762 1616h147v182h-147v-182z" />
<glyph unicode="&#xc5;" horiz-adv-x="1251" d="M25 0h165l117 330h637l117 -330h166l-535 1458h-131zM354 465l275 770l270 -770h-545zM377 1776q0 -51 19 -95q18 -42 53 -77q34 -34 76 -53t93 -19q52 0 94 19t76 53q35 35 53 77q19 44 19 95q0 53 -19 95q-20 44 -53 77t-76 51t-94 18t-93 -19q-44 -20 -76 -52 q-34 -34 -53 -77q-19 -42 -19 -93zM477 1776q0 58 41 99q40 40 100 40q61 0 101 -40q41 -41 41 -99q0 -60 -41 -101t-101 -41q-59 0 -100 41t-41 101z" />
<glyph unicode="&#xc6;" horiz-adv-x="1888" d="M16 0h170l181 346h505v-346h904v139h-750v523h639v139h-639v518h750v139h-990zM434 481l438 838v-838h-438z" />
<glyph unicode="&#xc7;" horiz-adv-x="1304" d="M156 729q0 -88 2 -204q1 -86 15 -155q13 -66 41 -124q27 -55 79 -107q72 -72 169 -112q94 -39 204 -39q101 0 182 29q85 30 150 85q68 57 111 137q44 82 62 183h-155q-28 -135 -121 -215q-92 -80 -229 -80q-73 0 -139 27q-69 28 -113 75q-36 36 -56 75q-19 37 -30 96 q-11 61 -14 136q-3 80 -3 193q0 115 3 194q3 74 14 135q11 59 30 96q20 39 56 75q45 48 113 76q64 26 139 26q136 0 227 -80q90 -80 119 -215h159q-18 102 -62 184q-42 78 -111 136q-65 55 -150 85q-81 29 -182 29q-112 0 -204 -38q-95 -39 -169 -113q-52 -52 -79 -107 q-28 -58 -41 -123q-13 -69 -15 -156q-2 -116 -2 -204zM475 -442h162l121 305h-137z" />
<glyph unicode="&#xc8;" horiz-adv-x="1228" d="M211 0h905v139h-749v527h639v139h-639v514h749v139h-905v-1458zM385 1913l221 -314h135l-180 314h-176z" />
<glyph unicode="&#xc9;" horiz-adv-x="1228" d="M211 0h905v139h-749v527h639v139h-639v514h749v139h-905v-1458zM541 1599h135l221 314h-176z" />
<glyph unicode="&#xca;" horiz-adv-x="1228" d="M211 0h905v139h-749v527h639v139h-639v514h749v139h-905v-1458zM315 1599h142l184 213l184 -213h142l-256 314h-140z" />
<glyph unicode="&#xcb;" horiz-adv-x="1228" d="M211 0h905v139h-749v527h639v139h-639v514h749v139h-905v-1458zM350 1616h148v182h-148v-182zM784 1616h148v182h-148v-182z" />
<glyph unicode="&#xcc;" horiz-adv-x="577" d="M211 0h156v1458h-156v-1458zM213 1913l221 -314h135l-180 314h-176z" />
<glyph unicode="&#xcd;" horiz-adv-x="577" d="M211 0h156v1458h-156v-1458zM213 1599h135l221 314h-176z" />
<glyph unicode="&#xce;" horiz-adv-x="577" d="M211 0h156v1458h-156v-1458zM211 1599h141l185 213l184 -213h141l-256 314h-139z" />
<glyph unicode="&#xcf;" horiz-adv-x="577" d="M211 0h156v1458h-156v-1458zM213 1616h147v182h-147v-182zM647 1616h148v182h-148v-182z" />
<glyph unicode="&#xd0;" horiz-adv-x="1406" d="M80 676h160v-676h489q152 0 259 61q105 60 173 154q29 42 47 80q20 43 28 94q9 55 12 135q3 79 3 205q0 93 -2 195q-1 73 -11 130q-9 51 -28 95q-15 34 -49 90q-144 219 -420 219h-501v-661h-160v-121zM397 137v539h330v121h-330v524h316q106 0 177 -34q73 -35 132 -113 q25 -35 41 -73q13 -30 21 -86q9 -57 10 -121q2 -94 2 -173q0 -84 -2 -174q-1 -53 -9 -114q-6 -46 -18 -79q-11 -29 -35 -65q-102 -152 -319 -152h-316z" />
<glyph unicode="&#xd1;" horiz-adv-x="1499" d="M211 0h156v1169l774 -1169h147v1458h-155v-1165l-775 1165h-147v-1458zM420 1726l76 -73q45 45 70 55q24 10 50 10q33 0 59 -13q31 -15 56 -30q40 -24 70 -35q33 -12 76 -12q34 0 79 18q47 19 115 87l-76 73q-45 -45 -71 -55t-50 -10q-32 0 -56 10q-26 11 -58 31 q-35 20 -70 36q-29 13 -76 13q-18 0 -39 -3q-23 -3 -43 -14q-28 -15 -50 -32q-27 -21 -62 -56z" />
<glyph unicode="&#xd2;" horiz-adv-x="1331" d="M156 729q0 -88 2 -204q1 -86 15 -155q13 -66 41 -124q27 -55 79 -107q151 -151 373 -151q110 0 204 39q95 39 168 112q52 52 79 107q28 58 41 124q15 75 16 155q2 116 2 204t-2 204q-1 81 -16 156q-13 65 -41 123q-27 55 -79 107q-151 151 -372 151q-222 0 -373 -151 q-52 -52 -79 -107q-28 -58 -41 -123q-13 -69 -15 -156q-2 -116 -2 -204zM311 729q0 115 3 194q3 75 14 134q11 58 30 95q20 39 56 75q47 50 113 77t139 27q72 0 138 -27q68 -28 114 -77q33 -33 55 -75q21 -40 31 -95q10 -52 13 -134q3 -79 3 -194q0 -113 -3 -193 q-3 -83 -13 -135q-10 -55 -31 -95q-22 -42 -55 -75q-45 -48 -114 -76q-68 -28 -138 -28q-71 0 -139 28t-113 76q-36 36 -56 75q-19 37 -30 95q-11 59 -14 135q-3 80 -3 193zM410 1913l221 -314h135l-180 314h-176z" />
<glyph unicode="&#xd3;" horiz-adv-x="1331" d="M156 729q0 -88 2 -204q1 -86 15 -155q13 -66 41 -124q27 -55 79 -107q151 -151 373 -151q110 0 204 39q95 39 168 112q52 52 79 107q28 58 41 124q15 75 16 155q2 116 2 204t-2 204q-1 81 -16 156q-13 65 -41 123q-27 55 -79 107q-151 151 -372 151q-222 0 -373 -151 q-52 -52 -79 -107q-28 -58 -41 -123q-13 -69 -15 -156q-2 -116 -2 -204zM311 729q0 115 3 194q3 75 14 134q11 58 30 95q20 39 56 75q47 50 113 77t139 27q72 0 138 -27q68 -28 114 -77q33 -33 55 -75q21 -40 31 -95q10 -52 13 -134q3 -79 3 -194q0 -113 -3 -193 q-3 -83 -13 -135q-10 -55 -31 -95q-22 -42 -55 -75q-45 -48 -114 -76q-68 -28 -138 -28q-71 0 -139 28t-113 76q-36 36 -56 75q-19 37 -30 95q-11 59 -14 135q-3 80 -3 193zM565 1599h135l222 314h-177z" />
<glyph unicode="&#xd4;" horiz-adv-x="1331" d="M156 729q0 -88 2 -204q1 -86 15 -155q13 -66 41 -124q27 -55 79 -107q151 -151 373 -151q110 0 204 39q95 39 168 112q52 52 79 107q28 58 41 124q15 75 16 155q2 116 2 204t-2 204q-1 81 -16 156q-13 65 -41 123q-27 55 -79 107q-151 151 -372 151q-222 0 -373 -151 q-52 -52 -79 -107q-28 -58 -41 -123q-13 -69 -15 -156q-2 -116 -2 -204zM311 729q0 115 3 194q3 75 14 134q11 58 30 95q20 39 56 75q47 50 113 77t139 27q72 0 138 -27q68 -28 114 -77q33 -33 55 -75q21 -40 31 -95q10 -52 13 -134q3 -79 3 -194q0 -113 -3 -193 q-3 -83 -13 -135q-10 -55 -31 -95q-22 -42 -55 -75q-45 -48 -114 -76q-68 -28 -138 -28q-71 0 -139 28t-113 76q-36 36 -56 75q-19 37 -30 95q-11 59 -14 135q-3 80 -3 193zM340 1599h141l185 213l184 -213h141l-256 314h-139z" />
<glyph unicode="&#xd5;" horiz-adv-x="1331" d="M156 729q0 -88 2 -204q1 -86 15 -155q13 -66 41 -124q27 -55 79 -107q151 -151 373 -151q110 0 204 39q95 39 168 112q52 52 79 107q28 58 41 124q15 75 16 155q2 116 2 204t-2 204q-1 81 -16 156q-13 65 -41 123q-27 55 -79 107q-151 151 -372 151q-222 0 -373 -151 q-52 -52 -79 -107q-28 -58 -41 -123q-13 -69 -15 -156q-2 -116 -2 -204zM311 729q0 115 3 194q3 75 14 134q11 58 30 95q20 39 56 75q47 50 113 77t139 27q72 0 138 -27q68 -28 114 -77q33 -33 55 -75q21 -40 31 -95q10 -52 13 -134q3 -79 3 -194q0 -113 -3 -193 q-3 -83 -13 -135q-10 -55 -31 -95q-22 -42 -55 -75q-45 -48 -114 -76q-68 -28 -138 -28q-71 0 -139 28t-113 76q-36 36 -56 75q-19 37 -30 95q-11 59 -14 135q-3 80 -3 193zM336 1726l76 -73q44 45 70 55q24 10 50 10q33 0 59 -13q31 -15 56 -30q40 -24 70 -35 q33 -12 76 -12q34 0 79 18q47 19 115 87l-76 73q-45 -45 -71 -55t-49 -10q-33 0 -57 10q-26 11 -58 31q-35 20 -70 36q-29 13 -76 13q-17 0 -38 -3q-23 -3 -43 -14q-31 -17 -51 -32q-27 -21 -62 -56z" />
<glyph unicode="&#xd6;" horiz-adv-x="1331" d="M156 729q0 -88 2 -204q1 -86 15 -155q13 -66 41 -124q27 -55 79 -107q151 -151 373 -151q110 0 204 39q95 39 168 112q52 52 79 107q28 58 41 124q15 75 16 155q2 116 2 204t-2 204q-1 81 -16 156q-13 65 -41 123q-27 55 -79 107q-151 151 -372 151q-222 0 -373 -151 q-52 -52 -79 -107q-28 -58 -41 -123q-13 -69 -15 -156q-2 -116 -2 -204zM311 729q0 115 3 194q3 75 14 134q11 58 30 95q20 39 56 75q47 50 113 77t139 27q72 0 138 -27q68 -28 114 -77q33 -33 55 -75q21 -40 31 -95q10 -52 13 -134q3 -79 3 -194q0 -113 -3 -193 q-3 -83 -13 -135q-10 -55 -31 -95q-22 -42 -55 -75q-45 -48 -114 -76q-68 -28 -138 -28q-71 0 -139 28t-113 76q-36 36 -56 75q-19 37 -30 95q-11 59 -14 135q-3 80 -3 193zM375 1616h147v182h-147v-182zM809 1616h147v182h-147v-182z" />
<glyph unicode="&#xd7;" d="M133 244l92 -92l310 309l309 -309l92 92l-311 309l311 309l-92 92l-309 -311l-310 311l-92 -92l309 -309z" />
<glyph unicode="&#xd8;" horiz-adv-x="1335" d="M156 729q0 -88 2 -204q1 -86 15 -155q13 -66 41 -124q27 -55 79 -107l16 -16l-102 -213h133l68 143q112 -65 258 -65q110 0 204 39q95 39 168 112q52 52 79 107q28 58 41 124q15 75 16 155q2 116 2 204t-2 204q-1 81 -16 156q-13 65 -41 123q-27 55 -79 107l-8 8l-8 8 l102 213h-133l-69 -141q-112 63 -256 63q-222 0 -373 -151q-52 -52 -79 -107q-28 -58 -41 -123q-13 -69 -15 -156q-2 -116 -2 -204zM311 729q0 115 3 194q3 75 14 134q11 58 30 95q20 39 56 75q47 50 113 77t139 27q54 0 103 -15q48 -15 93 -44l-479 -1004q-25 34 -38 71 t-21 92q-10 71 -11 126q-2 96 -2 172zM469 186l479 1004q25 -34 38 -71t21 -92q7 -54 9 -126q2 -96 2 -172q0 -113 -3 -193q-3 -76 -14 -135q-11 -57 -29 -95q-20 -40 -54 -75q-45 -48 -114 -76q-68 -28 -138 -28q-54 0 -104 15q-48 15 -93 44z" />
<glyph unicode="&#xd9;" horiz-adv-x="1396" d="M190 481q0 -106 38 -199q36 -89 106 -157q65 -64 161 -101q93 -36 203 -36q111 0 204 36q95 37 162 101q69 66 106 157q38 93 38 199v977h-155v-964q0 -83 -26 -152t-72 -115q-47 -47 -111 -73q-66 -27 -146 -27q-79 0 -145 27t-112 73q-45 45 -70 115t-25 152v964h-156 v-977zM442 1913l222 -314h135l-181 314h-176z" />
<glyph unicode="&#xda;" horiz-adv-x="1396" d="M190 481q0 -106 38 -199q36 -89 106 -157q65 -64 161 -101q93 -36 203 -36q111 0 204 36q95 37 162 101q69 66 106 157q38 93 38 199v977h-155v-964q0 -83 -26 -152t-72 -115q-47 -47 -111 -73q-66 -27 -146 -27q-79 0 -145 27t-112 73q-45 45 -70 115t-25 152v964h-156 v-977zM598 1599h135l221 314h-176z" />
<glyph unicode="&#xdb;" horiz-adv-x="1396" d="M190 481q0 -106 38 -199q36 -89 106 -157q65 -64 161 -101q93 -36 203 -36q111 0 204 36q95 37 162 101q69 66 106 157q38 93 38 199v977h-155v-964q0 -83 -26 -152t-72 -115q-47 -47 -111 -73q-66 -27 -146 -27q-79 0 -145 27t-112 73q-45 45 -70 115t-25 152v964h-156 v-977zM373 1599h141l184 213l185 -213h141l-256 314h-139z" />
<glyph unicode="&#xdc;" horiz-adv-x="1396" d="M190 481q0 -106 38 -199q36 -89 106 -157q65 -64 161 -101q93 -36 203 -36q111 0 204 36q95 37 162 101q69 66 106 157q38 93 38 199v977h-155v-964q0 -83 -26 -152t-72 -115q-47 -47 -111 -73q-66 -27 -146 -27q-79 0 -145 27t-112 73q-45 45 -70 115t-25 152v964h-156 v-977zM408 1616h147v182h-147v-182zM842 1616h147v182h-147v-182z" />
<glyph unicode="&#xdd;" horiz-adv-x="1054" d="M16 1458l435 -856v-602h155v602l430 856h-168l-340 -698l-344 698h-168zM426 1599h135l221 314h-176z" />
<glyph unicode="&#xde;" horiz-adv-x="1314" d="M211 0h156v307h387q100 0 183 30t142 86t92 135t33 177q0 99 -33 178q-34 83 -92 136q-61 57 -142 86q-83 30 -183 30h-387v293h-156v-1458zM367 446v578h372q139 0 224 -72q86 -72 86 -217t-86 -217q-85 -72 -224 -72h-372z" />
<glyph unicode="&#xdf;" horiz-adv-x="1138" d="M184 0h150v1067q0 124 58 200t196 76q132 0 192 -59q28 -28 46 -69t18 -85q0 -86 -50 -136t-130 -50h-74v-123h90q78 0 121 -43t43 -127v-346q0 -97 -51 -137q-27 -23 -52 -32q-24 -9 -69 -9h-82v-127h110q74 0 121 17q49 18 90 57q80 74 80 215v354q0 49 -6 86t-21 66 q-14 27 -40 51q-22 21 -62 43q60 39 95 99q34 58 34 145q0 86 -32 152q-32 65 -85 106q-52 40 -124 61t-154 21q-189 0 -301 -104q-111 -103 -111 -296v-1073z" />
<glyph unicode="&#xe0;" horiz-adv-x="1077" d="M104 285q0 -59 20 -114t56 -91q47 -50 114 -71q66 -21 171 -21q103 0 165 23q65 24 126 85v-96h147v684q0 166 -99 251q-98 85 -304 85q-121 0 -206 -31q-83 -30 -151 -119l101 -92q46 64 100 89q57 26 154 26q139 0 198 -55q60 -56 60 -166v-97h-303q-172 0 -259 -78 q-90 -81 -90 -212zM248 287q0 178 225 178h283v-109q0 -124 -51 -174q-46 -46 -104 -57q-54 -10 -122 -10q-121 0 -176 42t-55 130zM260 1530l221 -313h135l-180 313h-176z" />
<glyph unicode="&#xe1;" horiz-adv-x="1077" d="M104 285q0 -59 20 -114t56 -91q47 -50 114 -71q66 -21 171 -21q103 0 165 23q65 24 126 85v-96h147v684q0 166 -99 251q-98 85 -304 85q-121 0 -206 -31q-83 -30 -151 -119l101 -92q46 64 100 89q57 26 154 26q139 0 198 -55q60 -56 60 -166v-97h-303q-172 0 -259 -78 q-90 -81 -90 -212zM248 287q0 178 225 178h283v-109q0 -124 -51 -174q-46 -46 -104 -57q-54 -10 -122 -10q-121 0 -176 42t-55 130zM416 1217h135l221 313h-176z" />
<glyph unicode="&#xe2;" horiz-adv-x="1077" d="M104 285q0 -59 20 -114t56 -91q47 -50 114 -71q66 -21 171 -21q103 0 165 23q65 24 126 85v-96h147v684q0 166 -99 251q-98 85 -304 85q-121 0 -206 -31q-83 -30 -151 -119l101 -92q46 64 100 89q57 26 154 26q139 0 198 -55q60 -56 60 -166v-97h-303q-172 0 -259 -78 q-90 -81 -90 -212zM190 1217h142l184 213l184 -213h142l-256 313h-140zM248 287q0 178 225 178h283v-109q0 -124 -51 -174q-46 -46 -104 -57q-54 -10 -122 -10q-121 0 -176 42t-55 130z" />
<glyph unicode="&#xe3;" horiz-adv-x="1077" d="M104 285q0 -59 20 -114t56 -91q47 -50 114 -71q66 -21 171 -21q103 0 165 23q65 24 126 85v-96h147v684q0 166 -99 251q-98 85 -304 85q-121 0 -206 -31q-83 -30 -151 -119l101 -92q46 64 100 89q57 26 154 26q139 0 198 -55q60 -56 60 -166v-97h-303q-172 0 -259 -78 q-90 -81 -90 -212zM186 1343l76 -73q44 44 71 55q24 10 50 10q32 0 58 -13q38 -19 57 -30q42 -25 69 -35q33 -12 76 -12q35 0 80 18q47 19 115 87l-76 73q-44 -44 -72 -55q-26 -10 -49 -10q-32 0 -56 10q-29 12 -59 31q-39 23 -69 36q-29 13 -76 13q-18 0 -39 -3 q-23 -3 -43 -14q-28 -15 -50 -32q-32 -25 -63 -56zM248 287q0 178 225 178h283v-109q0 -124 -51 -174q-46 -46 -104 -57q-54 -10 -122 -10q-121 0 -176 42t-55 130z" />
<glyph unicode="&#xe4;" horiz-adv-x="1077" d="M104 285q0 -59 20 -114t56 -91q47 -50 114 -71q66 -21 171 -21q103 0 165 23q65 24 126 85v-96h147v684q0 166 -99 251q-98 85 -304 85q-121 0 -206 -31q-83 -30 -151 -119l101 -92q46 64 100 89q57 26 154 26q139 0 198 -55q60 -56 60 -166v-97h-303q-172 0 -259 -78 q-90 -81 -90 -212zM225 1233h148v182h-148v-182zM248 287q0 178 225 178h283v-109q0 -124 -51 -174q-46 -46 -104 -57q-54 -10 -122 -10q-121 0 -176 42t-55 130zM659 1233h148v182h-148v-182z" />
<glyph unicode="&#xe5;" horiz-adv-x="1077" d="M104 285q0 -59 20 -114t56 -91q47 -50 114 -71q66 -21 171 -21q103 0 165 23q65 24 126 85v-96h147v684q0 166 -99 251q-98 85 -304 85q-121 0 -206 -31q-83 -30 -151 -119l101 -92q46 64 100 89q57 26 154 26q139 0 198 -55q60 -56 60 -166v-97h-303q-172 0 -259 -78 q-90 -81 -90 -212zM248 287q0 178 225 178h283v-109q0 -124 -51 -174q-46 -46 -104 -57q-54 -10 -122 -10q-121 0 -176 42t-55 130zM274 1407q0 -48 20 -94t52 -78t77 -52t93 -20t93 20t77 52t52 78t20 94q0 50 -20 95t-52 77q-33 33 -77 51q-46 19 -93 19q-48 0 -93 -20 t-77 -52t-52 -77t-20 -93zM375 1407q0 58 41 99q40 40 100 40t100 -40q41 -41 41 -99q0 -59 -41 -100t-100 -41t-100 41t-41 100z" />
<glyph unicode="&#xe6;" horiz-adv-x="1710" d="M104 285q0 -59 20 -114t56 -91q47 -50 114 -71q66 -21 171 -21q130 0 215 38q86 38 154 136q56 -90 147 -132t211 -42q66 0 116 10q52 10 96 30q45 20 83 48q41 30 78 67l-103 88q-61 -61 -116 -87q-57 -27 -146 -27q-146 0 -222 91q-77 92 -77 257h682v67 q0 226 -108 357t-306 131q-208 0 -315 -158q-84 158 -354 158q-121 0 -206 -31q-83 -30 -151 -119l101 -92q46 64 100 89q57 26 154 26q139 0 198 -55q60 -56 60 -166v-97h-303q-172 0 -259 -78q-90 -81 -90 -212zM248 287q0 178 225 178h283v-109q0 -124 -51 -174 q-46 -46 -104 -57q-54 -10 -122 -10q-121 0 -176 42t-55 130zM901 575q5 67 10 95q5 30 23 73q29 71 92 111q64 41 143 41q80 0 144 -41q63 -40 92 -111q12 -35 13 -37q6 -24 8 -36q5 -33 6 -41q0 -4 1.5 -23t2.5 -31h-535z" />
<glyph unicode="&#xe7;" horiz-adv-x="1011" d="M129 504q0 -130 34 -226q35 -98 94 -162q61 -66 141 -97t177 -31q107 0 180 32t152 117l-100 96q-57 -63 -109 -89q-50 -25 -123 -25q-74 0 -133 28t-100 86q-35 51 -50 112q-16 67 -16 159t16 159q14 60 50 111q41 58 100 86q61 29 133 29q70 0 123 -25q51 -24 109 -88 l100 94q-79 85 -152 117q-75 33 -180 33q-96 0 -177 -33q-82 -33 -141 -97q-59 -63 -94 -161q-34 -95 -34 -225zM358 -442h162l121 305h-137z" />
<glyph unicode="&#xe8;" horiz-adv-x="1085" d="M129 504q0 -132 32 -231q31 -96 89 -160q60 -66 138 -95q81 -30 181 -30q66 0 116 10q51 10 95 30t81 48q42 32 77 67l-100 88q-60 -60 -118 -87t-147 -27q-145 0 -221 91t-76 257h680v67q0 226 -108 357t-305 131q-192 0 -303 -135t-111 -381zM276 575q1 53 9 95 q6 34 22 73q29 71 92 111q64 41 144 41q79 0 143 -41q63 -40 92 -111l7 -17.5t7 -19.5q6 -24 8 -36q4 -23 5 -41q0 -4 1.5 -23t2.5 -31h-533zM293 1530l221 -313h135l-180 313h-176z" />
<glyph unicode="&#xe9;" horiz-adv-x="1085" d="M129 504q0 -132 32 -231q31 -96 89 -160q60 -66 138 -95q81 -30 181 -30q66 0 116 10q51 10 95 30t81 48q42 32 77 67l-100 88q-60 -60 -118 -87t-147 -27q-145 0 -221 91t-76 257h680v67q0 226 -108 357t-305 131q-192 0 -303 -135t-111 -381zM276 575q1 53 9 95 q6 34 22 73q29 71 92 111q64 41 144 41q79 0 143 -41q63 -40 92 -111l7 -17.5t7 -19.5q6 -24 8 -36q4 -23 5 -41q0 -4 1.5 -23t2.5 -31h-533zM449 1217h135l221 313h-176z" />
<glyph unicode="&#xea;" horiz-adv-x="1085" d="M129 504q0 -132 32 -231q31 -96 89 -160q60 -66 138 -95q81 -30 181 -30q66 0 116 10q51 10 95 30t81 48q42 32 77 67l-100 88q-60 -60 -118 -87t-147 -27q-145 0 -221 91t-76 257h680v67q0 226 -108 357t-305 131q-192 0 -303 -135t-111 -381zM223 1217h142l184 213 l184 -213h141l-256 313h-139zM276 575q1 53 9 95q6 34 22 73q29 71 92 111q64 41 144 41q79 0 143 -41q63 -40 92 -111l7 -17.5t7 -19.5q6 -24 8 -36q4 -23 5 -41q0 -4 1.5 -23t2.5 -31h-533z" />
<glyph unicode="&#xeb;" horiz-adv-x="1085" d="M129 504q0 -132 32 -231q31 -96 89 -160q60 -66 138 -95q81 -30 181 -30q66 0 116 10q51 10 95 30t81 48q42 32 77 67l-100 88q-60 -60 -118 -87t-147 -27q-145 0 -221 91t-76 257h680v67q0 226 -108 357t-305 131q-192 0 -303 -135t-111 -381zM258 1233h148v182h-148 v-182zM276 575q1 53 9 95q6 34 22 73q29 71 92 111q64 41 144 41q79 0 143 -41q63 -40 92 -111l7 -17.5t7 -19.5q6 -24 8 -36q4 -23 5 -41q0 -4 1.5 -23t2.5 -31h-533zM692 1233h148v182h-148v-182z" />
<glyph unicode="&#xec;" horiz-adv-x="518" d="M184 0h148v1008h-148v-1008zM186 1530l222 -313h135l-181 313h-176z" />
<glyph unicode="&#xed;" horiz-adv-x="518" d="M184 0h148v1008h-148v-1008zM186 1217h136l221 313h-176z" />
<glyph unicode="&#xee;" horiz-adv-x="518" d="M184 0h148v1008h-148v-1008zM186 1217h142l184 213l184 -213h142l-256 313h-140z" />
<glyph unicode="&#xef;" horiz-adv-x="518" d="M184 0h148v1008h-148v-1008zM186 1233h148v182h-148v-182zM621 1233h147v182h-147v-182z" />
<glyph unicode="&#xf0;" horiz-adv-x="1085" d="M135 500q0 -112 22 -219q21 -103 99 -181q52 -53 123 -83q70 -29 164 -29t164 29t122 83q78 78 101 181q22 100 22 219q0 63 -5 121q-5 53 -18 105t-39 108q-20 43 -67 127l-129 227h111v106h-168l-96 168h-154l96 -168h-180v-106h238l118 -203q-36 17 -74 20 q-36 3 -79 1q-155 -10 -250 -107q-78 -78 -99 -180q-22 -107 -22 -219zM283 500q0 28 2 86q1 36 10 83q7 36 23 75q15 36 44 65q74 74 181 74q108 0 182 -74q26 -27 43 -65q19 -41 25 -75q9 -47 10 -83q2 -58 2 -86q0 -86 -12 -169q-12 -82 -68 -138q-74 -74 -182 -74 q-107 0 -181 74q-55 55 -67 138q-12 82 -12 169z" />
<glyph unicode="&#xf1;" horiz-adv-x="1150" d="M184 0h148v621q0 133 67 200q68 68 183 68q114 0 181 -67q66 -66 66 -201v-621h148v645q0 179 -105 281q-94 94 -258 94q-83 0 -157 -31q-72 -30 -125 -92v111h-148v-1008zM254 1343l76 -73q44 44 70 55q24 10 51 10q32 0 58 -13q31 -15 56 -30q40 -24 70 -35 q33 -12 76 -12q35 0 80 18t114 87l-76 73q-45 -45 -71 -55t-49 -10q-33 0 -57 10q-26 11 -58 31q-35 20 -70 36q-29 13 -75 13q-18 0 -39 -3q-23 -3 -43 -14q-31 -17 -51 -32q-27 -21 -62 -56z" />
<glyph unicode="&#xf2;" horiz-adv-x="1085" d="M131 504q0 -53 5 -115q4 -50 19 -105q16 -58 36 -97q23 -45 63 -85q55 -55 125 -84q72 -30 164 -30t164 30q69 29 124 84q76 77 100 182q23 99 23 220t-23 220q-24 104 -100 181q-55 55 -124 84q-74 31 -164 31t-164 -31q-70 -29 -125 -84q-40 -40 -63 -85 q-21 -40 -36 -96q-15 -54 -19 -107q-5 -63 -5 -113zM266 1530l221 -313h136l-181 313h-176zM279 504q0 28 2 86q1 41 11 84q9 42 24 77q14 34 44 64q74 74 183 74q110 0 184 -74q26 -28 43 -64q18 -39 25 -77q9 -47 10 -84q2 -58 2 -86t-2 -86q-1 -37 -10 -84 q-7 -37 -25 -78q-16 -36 -43 -63q-74 -74 -184 -74q-109 0 -183 74q-30 29 -44 63q-15 38 -24 78q-10 43 -11 84q-2 58 -2 86z" />
<glyph unicode="&#xf3;" horiz-adv-x="1085" d="M131 504q0 -53 5 -115q4 -50 19 -105q16 -58 36 -97q23 -45 63 -85q55 -55 125 -84q72 -30 164 -30t164 30q69 29 124 84q76 77 100 182q23 99 23 220t-23 220q-24 104 -100 181q-55 55 -124 84q-74 31 -164 31t-164 -31q-70 -29 -125 -84q-40 -40 -63 -85 q-21 -40 -36 -96q-15 -54 -19 -107q-5 -63 -5 -113zM279 504q0 28 2 86q1 41 11 84q9 42 24 77q14 34 44 64q74 74 183 74q110 0 184 -74q26 -28 43 -64q18 -39 25 -77q9 -47 10 -84q2 -58 2 -86t-2 -86q-1 -37 -10 -84q-7 -37 -25 -78q-16 -36 -43 -63q-74 -74 -184 -74 q-109 0 -183 74q-30 29 -44 63q-15 38 -24 78q-10 43 -11 84q-2 58 -2 86zM442 1217h136l221 313h-176z" />
<glyph unicode="&#xf4;" horiz-adv-x="1085" d="M131 504q0 -53 5 -115q4 -50 19 -105q16 -58 36 -97q23 -45 63 -85q55 -55 125 -84q72 -30 164 -30t164 30q69 29 124 84q76 77 100 182q23 99 23 220t-23 220q-24 104 -100 181q-55 55 -124 84q-74 31 -164 31t-164 -31q-70 -29 -125 -84q-40 -40 -63 -85 q-21 -40 -36 -96q-15 -54 -19 -107q-5 -63 -5 -113zM217 1217h141l185 213l184 -213h141l-256 313h-139zM279 504q0 28 2 86q1 41 11 84q9 42 24 77q14 34 44 64q74 74 183 74q110 0 184 -74q26 -28 43 -64q18 -39 25 -77q9 -47 10 -84q2 -58 2 -86t-2 -86q-1 -37 -10 -84 q-7 -37 -25 -78q-16 -36 -43 -63q-74 -74 -184 -74q-109 0 -183 74q-30 29 -44 63q-15 38 -24 78q-10 43 -11 84q-2 58 -2 86z" />
<glyph unicode="&#xf5;" horiz-adv-x="1085" d="M131 504q0 -53 5 -115q4 -50 19 -105q16 -58 36 -97q23 -45 63 -85q55 -55 125 -84q72 -30 164 -30t164 30q69 29 124 84q76 77 100 182q23 99 23 220t-23 220q-24 104 -100 181q-55 55 -124 84q-74 31 -164 31t-164 -31q-70 -29 -125 -84q-40 -40 -63 -85 q-21 -40 -36 -96q-15 -54 -19 -107q-5 -63 -5 -113zM213 1343l76 -73q45 44 70 55q24 10 51 10q32 0 58 -13q31 -15 56 -30q40 -24 70 -35q33 -12 76 -12q35 0 80 18t114 87l-76 73q-45 -45 -71 -55t-49 -10q-33 0 -57 10q-26 11 -58 31q-35 20 -70 36q-29 13 -75 13 q-18 0 -39 -3q-23 -3 -43 -14q-31 -17 -51 -32q-27 -21 -62 -56zM279 504q0 28 2 86q1 41 11 84q9 42 24 77q14 34 44 64q74 74 183 74q110 0 184 -74q26 -28 43 -64q18 -39 25 -77q9 -47 10 -84q2 -58 2 -86t-2 -86q-1 -37 -10 -84q-7 -37 -25 -78q-16 -36 -43 -63 q-74 -74 -184 -74q-109 0 -183 74q-30 29 -44 63q-15 38 -24 78q-10 43 -11 84q-2 58 -2 86z" />
<glyph unicode="&#xf6;" horiz-adv-x="1085" d="M131 504q0 -53 5 -115q4 -50 19 -105q16 -58 36 -97q23 -45 63 -85q55 -55 125 -84q72 -30 164 -30t164 30q69 29 124 84q76 77 100 182q23 99 23 220t-23 220q-24 104 -100 181q-55 55 -124 84q-74 31 -164 31t-164 -31q-70 -29 -125 -84q-40 -40 -63 -85 q-21 -40 -36 -96q-15 -54 -19 -107q-5 -63 -5 -113zM252 1233h147v182h-147v-182zM279 504q0 28 2 86q1 41 11 84q9 42 24 77q14 34 44 64q74 74 183 74q110 0 184 -74q26 -28 43 -64q18 -39 25 -77q9 -47 10 -84q2 -58 2 -86t-2 -86q-1 -37 -10 -84q-7 -37 -25 -78 q-16 -36 -43 -63q-74 -74 -184 -74q-109 0 -183 74q-30 29 -44 63q-15 38 -24 78q-10 43 -11 84q-2 58 -2 86zM686 1233h148v182h-148v-182z" />
<glyph unicode="&#xf7;" d="M104 483h861v138h-861v-138zM446 100h177v176h-177v-176zM446 827h177v177h-177v-177z" />
<glyph unicode="&#xf8;" horiz-adv-x="1085" d="M131 504q0 -114 23 -218q22 -102 96 -180l-117 -196h117l78 133q41 -25 98 -41q49 -14 117 -14q92 0 164 30q69 29 124 84q76 77 100 182q23 99 23 220q0 118 -22 218q-22 101 -96 179l116 197h-114l-80 -133q-40 24 -99 41q-49 14 -116 14q-90 0 -164 -31 q-70 -29 -125 -84q-40 -40 -63 -85q-21 -40 -36 -96q-15 -54 -19 -107q-5 -63 -5 -113zM279 504q0 28 2 86q1 41 11 84q9 42 24 77q14 34 44 64q74 74 183 74q86 0 147 -43l-360 -615q-36 57 -43 128q-8 77 -8 145zM395 164l363 612q34 -55 42 -128q7 -67 7 -144 q0 -28 -2 -86q-1 -37 -10 -84q-7 -37 -25 -78q-16 -36 -43 -63q-74 -74 -184 -74q-85 0 -148 45z" />
<glyph unicode="&#xf9;" horiz-adv-x="1153" d="M174 365q0 -86 25 -159q24 -71 77 -124q94 -94 261 -94q87 0 158 31q73 32 126 94v-113h146v1008h-148v-621q0 -134 -68 -201t-184 -67q-114 0 -180 66q-65 65 -65 202v621h-148v-643zM313 1530l222 -313h135l-181 313h-176z" />
<glyph unicode="&#xfa;" horiz-adv-x="1153" d="M174 365q0 -86 25 -159q24 -71 77 -124q94 -94 261 -94q87 0 158 31q73 32 126 94v-113h146v1008h-148v-621q0 -134 -68 -201t-184 -67q-114 0 -180 66q-65 65 -65 202v621h-148v-643zM469 1217h135l221 313h-176z" />
<glyph unicode="&#xfb;" horiz-adv-x="1153" d="M174 365q0 -86 25 -159q24 -71 77 -124q94 -94 261 -94q87 0 158 31q73 32 126 94v-113h146v1008h-148v-621q0 -134 -68 -201t-184 -67q-114 0 -180 66q-65 65 -65 202v621h-148v-643zM244 1217h141l184 213l185 -213h141l-256 313h-139z" />
<glyph unicode="&#xfc;" horiz-adv-x="1153" d="M174 365q0 -86 25 -159q24 -71 77 -124q94 -94 261 -94q87 0 158 31q73 32 126 94v-113h146v1008h-148v-621q0 -134 -68 -201t-184 -67q-114 0 -180 66q-65 65 -65 202v621h-148v-643zM279 1233h147v182h-147v-182zM713 1233h147v182h-147v-182z" />
<glyph unicode="&#xfd;" horiz-adv-x="913" d="M23 1008l362 -988l-72 -196q-24 -70 -57 -97q-34 -28 -109 -28h-45v-131h64q53 0 104 15q50 15 92 55q44 39 72 118l459 1252h-160l-274 -809l-277 809h-159zM356 1217h136l221 313h-176z" />
<glyph unicode="&#xfe;" horiz-adv-x="1118" d="M184 -451h148v570q61 -78 131 -105q66 -26 153 -26q82 0 142 23q63 24 104 65q39 39 63 88t37 105q14 57 18 116q5 67 5 119t-5 119q-4 57 -18 115t-37 106q-24 49 -63 88t-104 64q-63 24 -142 24q-83 0 -153 -26t-131 -103v567h-148v-1909zM332 504q0 74 9 143 q9 71 36 123q27 53 77 86t132 33t132 -33t77 -86q26 -51 34 -123q9 -83 9 -143q0 -61 -9 -144q-8 -71 -34 -122q-27 -53 -77 -86t-132 -33t-132 33t-77 86q-27 52 -36 122q-9 69 -9 144z" />
<glyph unicode="&#xff;" horiz-adv-x="913" d="M23 1008l362 -988l-72 -196q-24 -70 -57 -97q-34 -28 -109 -28h-45v-131h64q53 0 104 15q50 15 92 55q44 39 72 118l459 1252h-160l-274 -809l-277 809h-159zM166 1233h147v182h-147v-182zM600 1233h148v182h-148v-182z" />
<glyph unicode="&#x152;" horiz-adv-x="2025" d="M156 729q0 -88 2 -204q2 -87 15 -156t41 -124q27 -54 79 -106q151 -151 371 -151q101 0 193 40q94 41 161 124v-152h893v137h-737q0 170 1 266t1 267h622v131h-622q0 165 -1 259t-1 261h733v137h-889v-151q-66 82 -157 124q-85 39 -197 39q-220 0 -371 -151 q-52 -52 -79 -106q-28 -56 -41 -123q-13 -69 -15 -157q-2 -116 -2 -204zM311 729q0 115 3 194q3 75 14 134q11 58 30 95q20 39 56 75q47 50 113 77t139 27q72 0 138 -27q68 -28 114 -77q34 -35 54 -75q18 -38 29 -95q11 -59 14 -134q3 -79 3 -194q0 -113 -3 -193 q-3 -76 -14 -135q-11 -57 -29 -95q-20 -40 -54 -75q-45 -48 -114 -76q-68 -28 -138 -28q-71 0 -139 28t-113 76q-36 36 -56 75q-19 37 -30 95q-11 59 -14 135q-3 80 -3 193z" />
<glyph unicode="&#x153;" horiz-adv-x="1763" d="M131 504q0 -53 5 -115q4 -50 19 -105q16 -58 36 -97q23 -45 63 -85q55 -55 125 -84q72 -30 164 -30q115 0 205 51t137 143q107 -194 362 -194q66 0 116 10q51 10 95 30t81 48q42 32 77 67l-100 88q-60 -60 -118 -87t-147 -27q-145 0 -221 91t-76 257h680v67 q0 226 -108 357t-305 131q-229 0 -334 -195q-48 94 -138 144q-92 51 -206 51q-90 0 -164 -31q-70 -29 -125 -84q-40 -40 -63 -85q-21 -40 -36 -96q-15 -54 -19 -107q-5 -63 -5 -113zM279 504q0 28 2 86q1 41 11 84q9 42 24 77q14 34 44 64q74 74 183 74q110 0 184 -74 q26 -28 43 -64q18 -39 25 -77q9 -47 10 -84q2 -58 2 -86t-2 -86q-1 -37 -10 -84q-7 -37 -25 -78q-16 -36 -43 -63q-74 -74 -184 -74q-109 0 -183 74q-30 29 -44 63q-15 38 -24 78q-10 43 -11 84q-2 58 -2 86zM954 575q1 53 9 95q6 34 22 73q29 71 92 111q64 41 144 41 q79 0 143 -41q63 -40 92 -111q18 -43 23 -73q5 -28 10 -95h-535z" />
<glyph unicode="&#x178;" horiz-adv-x="1054" d="M16 1458l435 -856v-602h155v602l430 856h-168l-340 -698l-344 698h-168zM236 1616h147v182h-147v-182zM670 1616h147v182h-147v-182z" />
<glyph unicode="&#x2c6;" horiz-adv-x="1024" d="M186 1217h142l184 213l184 -213h142l-256 313h-140z" />
<glyph unicode="&#x2dc;" horiz-adv-x="1024" d="M182 1343l76 -73q44 44 71 55q24 10 50 10q32 0 58 -13q38 -19 57 -30q42 -25 69 -35q33 -12 76 -12q35 0 80 18q47 19 115 87l-76 73q-44 -44 -72 -55q-26 -10 -49 -10q-32 0 -56 10q-29 12 -59 31q-39 23 -69 36q-29 13 -76 13q-18 0 -39 -3q-23 -3 -43 -14 q-28 -15 -50 -32q-32 -25 -63 -56z" />
<glyph unicode="&#x2000;" horiz-adv-x="1008" />
<glyph unicode="&#x2001;" horiz-adv-x="2017" />
<glyph unicode="&#x2002;" horiz-adv-x="1008" />
<glyph unicode="&#x2003;" horiz-adv-x="2017" />
<glyph unicode="&#x2004;" horiz-adv-x="672" />
<glyph unicode="&#x2005;" horiz-adv-x="504" />
<glyph unicode="&#x2006;" horiz-adv-x="336" />
<glyph unicode="&#x2007;" horiz-adv-x="336" />
<glyph unicode="&#x2008;" horiz-adv-x="252" />
<glyph unicode="&#x2009;" horiz-adv-x="403" />
<glyph unicode="&#x200a;" horiz-adv-x="112" />
<glyph unicode="&#x2010;" horiz-adv-x="872" d="M156 483h561v138h-561v-138z" />
<glyph unicode="&#x2011;" horiz-adv-x="872" d="M156 483h561v138h-561v-138z" />
<glyph unicode="&#x2012;" horiz-adv-x="872" d="M156 483h561v138h-561v-138z" />
<glyph unicode="&#x2013;" d="M106 483h857v138h-857v-138z" />
<glyph unicode="&#x2014;" horiz-adv-x="1871" d="M156 483h1560v140h-1560v-140z" />
<glyph unicode="&#x2018;" horiz-adv-x="538" d="M180 1286h178v334l-178 -162v-172z" />
<glyph unicode="&#x2019;" horiz-adv-x="538" d="M180 1124l178 162v172h-178v-334z" />
<glyph unicode="&#x201a;" horiz-adv-x="538" d="M180 -162l178 162v172h-178v-334z" />
<glyph unicode="&#x201c;" horiz-adv-x="888" d="M180 1286h178v334l-178 -162v-172zM528 1286h181v334l-181 -162v-172z" />
<glyph unicode="&#x201d;" horiz-adv-x="888" d="M180 1124l178 162v172h-178v-334zM528 1124l181 162v172h-181v-334z" />
<glyph unicode="&#x201e;" horiz-adv-x="888" d="M180 -162l178 162v172h-178v-334zM528 -162l181 162v172h-181v-334z" />
<glyph unicode="&#x2022;" horiz-adv-x="1089" d="M211 684q0 -70 27 -130q28 -62 71 -105q44 -44 106 -72q60 -27 130 -27t130 27t105 72t72 105t27 130t-27 130q-28 62 -72 106q-43 43 -105 71q-60 27 -130 27t-130 -27q-64 -29 -106 -71t-71 -106q-27 -60 -27 -130z" />
<glyph unicode="&#x2026;" horiz-adv-x="1550" d="M180 0h189v188h-189v-188zM680 0h188v188h-188v-188zM1182 0h188v188h-188v-188z" />
<glyph unicode="&#x202f;" horiz-adv-x="403" />
<glyph unicode="&#x2039;" horiz-adv-x="671" d="M82 549l430 -430v182l-246 248l246 246v184z" />
<glyph unicode="&#x203a;" horiz-adv-x="671" d="M160 119l430 430l-430 430v-184l248 -246l-248 -248v-182z" />
<glyph unicode="&#x205f;" horiz-adv-x="504" />
<glyph unicode="&#x2122;" horiz-adv-x="1718" d="M74 1350h241v-766h119v766h244v108h-604v-108zM831 584h119v630l209 -413h115l209 413v-630h116v874h-116l-266 -530l-267 530h-119v-874z" />
<glyph unicode="&#xe000;" horiz-adv-x="1003" d="M0 0v1004h1004v-1004h-1004z" />
<glyph unicode="&#xfb01;" horiz-adv-x="1150" d="M86 889h129v-889h147v889h216v112h-216v187q0 68 32 108q32 39 104 39h80v127h-107q-66 0 -113 -21q-45 -20 -79 -59q-35 -40 -49 -86q-15 -50 -15 -104v-191h-129v-112zM807 1309h168v151h-168v-151zM817 0h148v1001h-148v-1001z" />
<glyph unicode="&#xfb02;" horiz-adv-x="1232" d="M86 889h129v-889h147v889h216v112h-216v187q0 68 32 108q32 39 104 39h80v127h-107q-66 0 -113 -21q-45 -20 -79 -59q-35 -40 -49 -86q-15 -50 -15 -104v-191h-129v-112zM809 268q0 -116 62 -191q63 -77 196 -77h107v127h-82q-79 0 -107 37q-29 38 -29 110v1184h-147 v-1190z" />
</font>
</defs>
</svg>
